# xmcd CD database file
#
# Track frame offsets:
#	150
#	12850
#	29045
#	61250
#	81337
#	96680
#	117712
#	128962
#	147382
#	167487
#	182387
#	202125
#	222650
#
# Disc length: 3259 seconds
#
# Revision: 1
# Processed by: cddbd v1.5.2PL0 Copyright (c) Steve Scherf et al.
# Submitted via: Fey Extractor 
#
DISCID=cc0cb90d
DTITLE=Rare Blues Grooves - American Blues Legends - Rare Blues Grooves
DYEAR=1968
DGENRE=Blues
TTITLE0=Brown McGhee - Beggin' Woman
TTITLE1=Brown McGhee - Brown Skinned Woman
TTITLE2=Brown McGhee - Bad Luck Blues
TTITLE3=Brown McGhee - Love Sick Soul
TTITLE4=Brown McGhee - Barefoot Boy
TTITLE5=Brown McGhee - Misery
TTITLE6=Brown McGhee - I'm Cousin Joe
TTITLE7=Jay McShann - Hard Oil Blues
TTITLE8=Jay McShann - After Hours
TTITLE9=Jay McShann - Four Days Rider
TTITLE10=Jay McShann - Yardbird Blues
TTITLE11=Jay McShann - Sweet Georgia Brown
TTITLE12=Eddie 'Cleanhead" Vinson - Jumpin' The Blues
EXTD=YEAR: 1968
EXTT0=
EXTT1=
EXTT2=
EXTT3=
EXTT4=
EXTT5=
EXTT6=
EXTT7=
EXTT8=
EXTT9=
EXTT10=
EXTT11=
EXTT12=
PLAYORDER=
